<svg width="26" height="26" viewBox="0 0 26 26" fill="none" xmlns="http://www.w3.org/2000/svg">
<path fill-rule="evenodd" clip-rule="evenodd" d="M15.1401 7.66847C15.3644 7.2801 15.8616 7.14685 16.25 7.3711C16.6384 7.59535 16.7716 8.0926 16.5474 8.48097L10.8599 18.3317C10.6356 18.7201 10.1384 18.8533 9.75 18.6291C9.36163 18.4048 9.22837 17.9076 9.45262 17.5192L15.1401 7.66847ZM18.6729 16.9732C18.3853 16.6287 18.4324 16.116 18.7769 15.8292L18.9759 15.6627C20.1768 14.6584 20.7764 14.1563 21.8433 13.0001C20.7561 11.8212 20.176 11.3385 18.9085 10.2807L18.7769 10.171C18.4324 9.88416 18.3853 9.37147 18.6729 9.02697C18.9597 8.68247 19.4383 8.68329 19.8177 8.92297C21.125 9.7501 21.9375 10.5626 23.2302 12.1437C23.4081 12.3972 23.5625 12.6832 23.5625 13.0001C23.5625 13.317 23.4081 13.603 23.2302 13.8557C21.9375 15.4376 21.125 16.2501 19.8177 17.0764L19.8169 17.0772C19.4724 17.3648 18.9597 17.3177 18.6729 16.9732ZM7.22313 15.8292C7.56763 16.116 7.61475 16.6287 7.32712 16.9732C7.04031 17.3177 6.52763 17.3648 6.18313 17.0772L6.18231 17.0764C4.875 16.2501 4.0625 15.4376 2.76981 13.8557C2.59187 13.603 2.4375 13.317 2.4375 13.0001C2.4375 12.6832 2.59187 12.3972 2.76981 12.1437C4.0625 10.5626 4.875 9.7501 6.18231 8.92297C6.56175 8.68329 7.04031 8.68247 7.32712 9.02697C7.61475 9.37147 7.56763 9.88416 7.22313 10.171L7.0915 10.2807C5.824 11.3385 5.24388 11.8212 4.15675 13.0001C5.22356 14.1563 5.82319 14.6584 7.02406 15.6627L7.22313 15.8292Z" fill="white"/>
</svg>
