<svg width="34" height="34" viewBox="0 0 34 34" fill="none" xmlns="http://www.w3.org/2000/svg">
<path fill-rule="evenodd" clip-rule="evenodd" d="M15.9376 4.25C15.9376 3.6635 16.4136 3.1875 17.0001 3.1875C17.5866 3.1875 18.0626 3.6635 18.0626 4.25V6.375C18.0626 6.9615 17.5866 7.4375 17.0001 7.4375C16.4136 7.4375 15.9376 6.9615 15.9376 6.375V4.25ZM9.69115 7.12619C9.27677 6.71181 8.60421 6.71181 8.18877 7.12619C7.7744 7.54162 7.7744 8.21419 8.18877 8.62856L9.69115 10.132C10.1066 10.5464 10.7791 10.5464 11.1946 10.132C11.6089 9.71656 11.6089 9.044 11.1946 8.62856L9.69115 7.12619ZM19.9846 19.5787C20.7624 18.7436 21.2501 17.5801 21.2501 16.1245C21.2501 13.6159 19.2898 11.6875 17.0001 11.6875C14.7104 11.6875 12.7501 13.6159 12.7501 16.1245C12.7501 17.7576 13.106 18.6713 13.9911 19.55C14.9048 20.4574 15.7697 21.7664 15.9163 23.375H18.0902C18.2581 21.7398 19.1782 20.4457 19.9846 19.5787ZM21.5401 21.0269C20.7932 21.828 20.1876 22.8087 20.1876 23.9041C20.1876 24.7849 19.4736 25.5 18.5917 25.5H15.4573C14.5489 25.5 13.8126 24.7637 13.8126 23.8552C13.8126 22.7832 13.2548 21.8131 12.494 21.0577C11.1181 19.6913 10.6251 18.1847 10.6251 16.1245C10.6251 12.5003 13.4789 9.5625 17.0001 9.5625C20.5212 9.5625 23.3751 12.5003 23.3751 16.1245C23.3751 18.0806 22.7078 19.7721 21.5401 21.0269ZM17.8118 26.5625C18.6172 26.5625 18.6374 26.6964 17.8607 26.9099L14.1951 27.9182C14.0017 27.9703 13.8126 27.8248 13.8126 27.625C13.8126 27.3934 13.8869 27.1788 14.0134 27.0034C14.1079 26.8728 14.2599 26.8016 14.415 26.7591L15.0153 26.5986C15.1046 26.5742 15.197 26.5625 15.2894 26.5625H17.8118ZM13.8147 29.2549C13.8434 29.665 14.3183 29.801 14.7146 29.6947L19.6053 28.3836C19.9485 28.2923 20.1876 27.9809 20.1876 27.625C20.1876 27.3434 19.8826 27.2096 19.6106 27.2829L14.1462 28.747C13.9496 28.7991 13.8126 28.9776 13.8126 29.1816C13.8126 29.206 13.8136 29.2304 13.8147 29.2549ZM17.5494 30.8125C17.6429 30.8125 17.7353 30.7997 17.8246 30.7764L19.0326 30.4523C19.1442 30.4226 19.2504 30.3748 19.3471 30.3099L19.7148 30.0656C20.0101 29.8679 20.1876 29.5364 20.1876 29.1816C20.1876 29.1114 20.1217 29.0604 20.0537 29.0785L15.18 30.3854C15.0642 30.4162 15.0398 30.5681 15.1386 30.634C15.3128 30.7509 15.5179 30.8125 15.7283 30.8125H17.5494ZM26.0685 7.12619C25.6541 6.71181 24.9816 6.71181 24.5661 7.12619L23.0638 8.62856C22.6494 9.044 22.6494 9.71656 23.0638 10.132C23.4792 10.5464 24.1518 10.5464 24.5661 10.132L26.0696 8.62856C26.4839 8.21419 26.4829 7.54162 26.0685 7.12619ZM28.6865 14.875C29.273 14.875 29.749 15.351 29.749 15.9375C29.749 16.524 29.273 17 28.6865 17H26.5615C25.975 17 25.499 16.524 25.499 15.9375C25.499 15.351 25.975 14.875 26.5615 14.875H28.6865ZM8.49902 15.9375C8.49902 15.351 8.02302 14.875 7.43652 14.875H5.31152C4.72502 14.875 4.24902 15.351 4.24902 15.9375C4.24902 16.524 4.72502 17 5.31152 17H7.43652C8.02302 17 8.49902 16.524 8.49902 15.9375Z" fill="white"/>
</svg>
