<svg width="28" height="28" viewBox="0 0 28 28" fill="none" xmlns="http://www.w3.org/2000/svg">
<path fill-rule="evenodd" clip-rule="evenodd" d="M8.75 12.25C8.75 11.767 9.142 11.375 9.625 11.375H19.25C19.733 11.375 20.125 11.767 20.125 12.25C20.125 12.733 19.733 13.125 19.25 13.125H9.625C9.142 13.125 8.75 12.733 8.75 12.25Z" fill="white"/>
<path fill-rule="evenodd" clip-rule="evenodd" d="M8.75 15.75C8.75 15.267 9.142 14.875 9.625 14.875H19.25C19.733 14.875 20.125 15.267 20.125 15.75C20.125 16.233 19.733 16.625 19.25 16.625H9.625C9.142 16.625 8.75 16.233 8.75 15.75Z" fill="white"/>
<path fill-rule="evenodd" clip-rule="evenodd" d="M8.75 19.25C8.75 18.767 9.142 18.375 9.625 18.375H16.625C17.108 18.375 17.5 18.767 17.5 19.25C17.5 19.733 17.108 20.125 16.625 20.125H9.625C9.142 20.125 8.75 19.733 8.75 19.25Z" fill="white"/>
<path fill-rule="evenodd" clip-rule="evenodd" d="M15.715 3.43988C15.7192 3.46042 15.7215 3.48051 15.7219 3.50009H17.5C17.983 3.50009 18.375 3.89209 18.375 4.37509V4.59666V6.12509C18.375 6.20831 18.3634 6.28883 18.3417 6.36511C18.2372 6.73153 17.8998 7.00009 17.5 7.00009H10.5C10.1002 7.00009 9.76281 6.73153 9.65834 6.36511C9.65834 6.36492 9.65834 6.3653 9.65834 6.36511C9.63664 6.289 9.625 6.2081 9.625 6.12509V4.59666V4.37509C9.625 3.89209 10.017 3.50009 10.5 3.50009H12.2781C12.2785 3.48051 12.2808 3.46042 12.285 3.43988C12.446 2.64888 13.1547 2.02588 14 2.02588C14.8444 2.02588 15.554 2.64888 15.715 3.43988ZM5.25 14.8751C5.25 8.00559 5.62128 5.59324 8.75 4.77501V6.12509C8.75 6.28443 8.77135 6.43881 8.81125 6.58553C8.36762 6.74727 8.12594 6.93865 7.96163 7.13571C7.68162 7.47171 7.40075 8.09296 7.22313 9.40809C7.04025 10.7477 7 12.4898 7 14.8751C7 17.2595 7.04025 19.0025 7.22313 20.3421C7.40075 21.6572 7.68162 22.2785 7.96163 22.6145C8.20312 22.9041 8.61175 23.1815 9.583 23.3705C10.6435 23.5813 12.026 23.6251 14 23.6251C15.974 23.6251 17.3565 23.5813 18.417 23.3705C19.3883 23.1815 19.7969 22.9041 20.0384 22.6145C20.3184 22.2785 20.5992 21.6572 20.776 20.3421C20.9597 19.0025 21 17.2595 21 14.8751C21 12.4898 20.9597 10.7477 20.776 9.40809C20.5992 8.09296 20.3184 7.47171 20.0384 7.13571C19.874 6.93865 19.6324 6.74727 19.1888 6.58553C19.2287 6.43881 19.25 6.28443 19.25 6.12509V4.77501C22.3787 5.59324 22.75 8.00559 22.75 14.8751C22.75 24.5001 22.0211 25.3751 14 25.3751C5.97888 25.3751 5.25 24.5001 5.25 14.8751Z" fill="white"/>
</svg>
