<svg width="31" height="31" viewBox="0 0 31 31" fill="none" xmlns="http://www.w3.org/2000/svg">
<path fill-rule="evenodd" clip-rule="evenodd" d="M8.71875 7.74992V12.8717L15.5523 14.32C16.1607 14.4488 16.4881 14.9642 16.5104 15.4476C16.5104 15.4563 16.5114 15.4689 16.5114 15.4805C16.5114 15.4844 16.5114 15.4883 16.5114 15.4922C16.5114 15.497 16.5114 15.5009 16.5114 15.5048C16.5114 15.5164 16.5104 15.529 16.5104 15.5377C16.4881 16.0201 16.1607 16.5365 15.5523 16.6653L8.71875 18.1136V23.5648C8.73812 23.5657 8.76622 23.5628 8.80594 23.5483C13.0549 22.0719 23.7344 15.9843 23.7344 15.4999C23.7344 15.0155 13.0055 9.2292 8.80594 7.76542C8.76622 7.75185 8.73812 7.74895 8.71875 7.74992ZM25.7252 15.4922V15.4815V15.4786C25.7145 14.8024 25.3473 14.2299 24.8291 13.8463C21.3115 11.2423 13.6768 7.41182 9.44338 5.93642C8.83888 5.72523 8.184 5.78335 7.65797 6.11563C7.12128 6.45373 6.78125 7.0437 6.78125 7.73054V13.264C6.78125 13.9499 7.26175 14.5428 7.93309 14.6852L11.7413 15.4922L7.93309 16.3001C7.26175 16.4415 6.78125 17.0344 6.78125 17.7213V23.5841C6.78125 24.271 7.12128 24.86 7.65797 25.199C8.184 25.5313 8.83888 25.5894 9.44338 25.3783C13.6778 23.899 21.3493 19.7111 24.8281 17.139C25.3473 16.7544 25.7145 16.1829 25.7242 15.5067V15.5038L25.7252 15.4922Z" fill="white"/>
</svg>
