<svg width="30" height="30" viewBox="0 0 30 30" fill="none" xmlns="http://www.w3.org/2000/svg">
<path fill-rule="evenodd" clip-rule="evenodd" d="M18.756 14.781L12.681 17.931L12.6768 11.6099L18.756 14.781Z" fill="white"/>
<path fill-rule="evenodd" clip-rule="evenodd" d="M14.7657 5.625C19.5469 5.625 21.5597 6.165 22.5807 7.18594C23.6016 8.20687 24.1407 10.2188 24.1407 15C24.1407 19.7812 23.6016 21.7941 22.5807 22.815C21.5597 23.8359 19.5469 24.375 14.7657 24.375C9.98441 24.375 7.97156 23.8359 6.95062 22.815C5.92969 21.7941 5.39062 19.7812 5.39062 15C5.39062 10.2188 5.92969 8.20594 6.95062 7.18594C7.97156 6.165 9.98441 5.625 14.7657 5.625ZM26.0157 15C26.0157 5.625 24.1407 3.75 14.7657 3.75C5.39062 3.75 3.51562 5.625 3.51562 15C3.51562 24.375 5.39062 26.25 14.7657 26.25C24.1407 26.25 26.0157 24.375 26.0157 15Z" fill="white"/>
</svg>
